<svg width="512" height="512" viewBox="0 0 512 512" fill="none" xmlns="http://www.w3.org/2000/svg">
<g clip-path="url(#clip0_433_11230)">
<rect width="512" height="512" fill="#3A4266"/>
<rect width="512" height="512" fill="#3A4266"/>
<path d="M250.038 311.64C251.445 310.516 252.824 309.322 254.147 308.043C264.516 298.082 269.708 286.014 269.708 271.838C269.708 257.663 264.587 245.889 254.358 235.886C244.115 225.883 231.846 220.882 217.509 220.882C216.144 220.882 214.807 220.938 213.485 221.008H107.707V277.458C107.707 283.134 105.357 285.986 100.672 285.986C95.9867 285.986 93.5386 283.148 93.5386 277.458V221.008H56V273.749C56 288.121 59.3768 299.347 66.1444 307.439C74.8396 317.807 86.3348 322.977 100.588 322.977C113.11 322.977 123.69 318.51 132.315 309.588C140.954 300.667 145.274 289.723 145.274 276.755V232.36H182.756C181.476 233.372 180.223 234.439 179.013 235.577C168.602 245.384 163.41 257.466 163.41 271.824C163.41 286.183 168.616 297.97 179.013 307.973C189.411 317.976 201.947 322.977 216.622 322.977C216.946 322.977 217.255 322.963 217.579 322.963H292.811V311.626H250.067L250.038 311.64ZM226.893 282.361C224.023 285.241 220.562 286.688 216.51 286.688C212.458 286.688 209.095 285.241 206.225 282.361C203.354 279.481 201.919 275.997 201.919 271.937C201.919 267.876 203.34 264.308 206.182 261.456C209.025 258.604 212.472 257.171 216.524 257.171C220.576 257.171 224.122 258.604 226.964 261.456C229.806 264.308 231.213 267.806 231.213 271.937C231.213 276.067 229.778 279.481 226.907 282.361H226.893Z" fill="white"/>
<path d="M93.9466 186.138H56V207.745H93.9466V186.138Z" fill="white"/>
<path d="M205.984 173.888C204.999 165.669 210.922 158.138 218.914 157.183C227.145 156.2 234.686 162.114 235.685 170.347C236.965 181.067 231 184.045 198.597 198.797L197.246 187.586L209.487 182.078C207.447 179.802 206.335 176.894 205.969 173.902L205.984 173.888ZM221.306 177.105L222.051 177.021C224.795 176.697 226.019 174.267 225.695 171.527C225.4 169.041 223.107 166.779 220.11 167.144C216.395 167.846 215.832 169.42 215.748 172.974C216.1 175.967 219.069 177.386 221.306 177.105Z" fill="white"/>
<path d="M387.966 267.09L438.927 354.504H56V344.711H391.779L350.652 276.081C341.085 260.107 345.953 239.441 361.655 229.41L475.017 157V196.113L392.609 248.179C386.221 252.211 384.167 260.585 387.98 267.104L387.966 267.09ZM286.859 186.138V323.005H327.634V186.138H286.859Z" fill="white"/>
</g>
<defs>
<clipPath id="clip0_433_11230">
<rect width="512" height="512" fill="white"/>
</clipPath>
</defs>
</svg>
