<svg width="1232" height="189" viewBox="0 0 1232 189" fill="none" xmlns="http://www.w3.org/2000/svg">
<rect width="274" height="189" rx="10" transform="matrix(-1 0 0 1 1232 0)" fill="#F5F6F7"/>
<rect width="372" height="30" rx="10" transform="matrix(-1 0 0 1 942 12)" fill="#F5F6F7"/>
<rect width="590" height="30" rx="10" transform="matrix(-1 0 0 1 938 58)" fill="#F5F6F7"/>
<rect width="153.491" height="30" rx="10" transform="matrix(-1 0 0 1 942.352 98)" fill="#F5F6F7"/>
<rect width="88" height="30" rx="10" transform="matrix(-1 0 0 1 92 102)" fill="#F5F6F7"/>
<rect width="202" height="30" rx="10" transform="matrix(-1 0 0 1 206 141)" fill="#F5F6F7"/>
<rect width="143" height="30" rx="10" transform="matrix(-1 0 0 1 143 11)" fill="#F5F6F7"/>
</svg>
