<svg width="298" height="150" viewBox="0 0 298 150" fill="none" xmlns="http://www.w3.org/2000/svg">
<g clip-path="url(#clip0_34_11)">
<path d="M137.92 119.03C138.92 118.23 139.9 117.38 140.84 116.47C148.21 109.38 151.9 100.79 151.9 90.7001C151.9 80.6101 148.26 72.2301 140.99 65.1101C133.71 57.9901 124.99 54.4301 114.8 54.4301C113.83 54.4301 112.88 54.4701 111.94 54.5201H36.76V94.7001C36.76 98.7401 35.09 100.77 31.76 100.77C28.43 100.77 26.69 98.75 26.69 94.7001V54.5301H0V92.0701C0 102.3 2.4 110.29 7.21 116.04C13.39 123.42 21.56 127.1 31.69 127.1C40.59 127.1 48.11 123.92 54.24 117.57C60.38 111.22 63.45 103.43 63.45 94.2001V62.6001H90.09C89.18 63.3201 88.29 64.0801 87.43 64.8901C80.03 71.8701 76.34 80.4701 76.34 90.6901C76.34 100.91 80.04 109.3 87.43 116.42C94.82 123.54 103.73 127.1 114.16 127.1C114.39 127.1 114.61 127.09 114.84 127.09H168.31V119.02H137.93L137.92 119.03ZM121.47 98.1901C119.43 100.24 116.97 101.27 114.09 101.27C111.21 101.27 108.82 100.24 106.78 98.1901C104.74 96.1401 103.72 93.66 103.72 90.7701C103.72 87.8801 104.73 85.3401 106.75 83.3101C108.77 81.2801 111.22 80.2601 114.1 80.2601C116.98 80.2601 119.5 81.2801 121.52 83.3101C123.54 85.3401 124.54 87.8301 124.54 90.7701C124.54 93.71 123.52 96.1401 121.48 98.1901H121.47Z" fill="#3A4266"/>
<path d="M26.97 29.6899H0V45.0699H26.97V29.6899Z" fill="#3A4266"/>
<path d="M106.26 11.97C105.56 6.11998 109.77 0.759978 115.45 0.0799783C121.3 -0.620022 126.66 3.58998 127.37 9.44998C128.28 17.08 124.04 19.2 101.01 29.7L100.05 21.72L108.75 17.8C107.3 16.18 106.51 14.11 106.25 11.98L106.26 11.97ZM117.15 14.26L117.68 14.2C119.63 13.97 120.5 12.24 120.27 10.29C120.06 8.51998 118.43 6.90998 116.3 7.16998C113.66 7.66998 113.26 8.78998 113.2 11.32C113.45 13.45 115.56 14.46 117.15 14.26Z" fill="#3A4266"/>
<path d="M235.94 87.3099L272.16 149.53H0V142.56H238.65L209.42 93.7099C202.62 82.3399 206.08 67.6299 217.24 60.4899L297.81 8.93994V36.7799L239.24 73.8399C234.7 76.7099 233.24 82.6699 235.95 87.3099H235.94ZM164.08 29.6899V127.11H193.06V29.6899H164.08Z" fill="#0092D4"/>
</g>
<defs>
<clipPath id="clip0_34_11">
<rect width="297.81" height="149.53" fill="white"/>
</clipPath>
</defs>
</svg>
